<svg xmlns="http://www.w3.org/2000/svg" width="1200" height="480" viewBox="0 0 1200 480" role="img" aria-labelledby="title desc">
  <title id="title">Engineering ecosystem</title><desc id="desc">Products, Apple-native software, payment systems, foundations, and research tracks.</desc>
  <rect x="1" y="1" width="1198" height="478" rx="22" fill="#f7f8fa" stroke="#d8dee8" stroke-width="2"/>
  <text x="28" y="48" fill="#171b23" font-family="-apple-system,BlinkMacSystemFont,Segoe UI,sans-serif" font-size="29" font-weight="850">Engineering ecosystem</text>
  <text x="1172" y="46" text-anchor="end" fill="#6b7688" font-family="SFMono-Regular,Consolas,monospace" font-size="13" font-weight="700" letter-spacing="2">BREADTH WITHOUT A REPOSITORY WALL</text>
  <g font-family="-apple-system,BlinkMacSystemFont,Segoe UI,sans-serif">
    <rect x="18" y="72" width="281" height="235" rx="16" fill="#ffffff" stroke="#d8dee8"/><text x="42" y="112" fill="#2867e8" font-size="19" font-weight="800">Products</text><text x="42" y="157" fill="#505b6d" font-size="16">NosFerry · Hunter</text><text x="42" y="183" fill="#505b6d" font-size="16">Unified Dev</text><text x="42" y="209" fill="#505b6d" font-size="16">Spectra Desktop</text><text x="42" y="279" fill="#171b23" font-size="42" font-weight="900">04</text>
    <rect x="312" y="72" width="281" height="235" rx="16" fill="#ffffff" stroke="#d8dee8"/><text x="336" y="112" fill="#6f52d9" font-size="19" font-weight="800">Apple native</text><text x="336" y="157" fill="#505b6d" font-size="16">DotSync · Hodos</text><text x="336" y="183" fill="#505b6d" font-size="16">Audio analysis</text><text x="336" y="209" fill="#505b6d" font-size="16">Planning tools</text><text x="336" y="279" fill="#171b23" font-size="42" font-weight="900">04</text>
    <rect x="606" y="72" width="281" height="235" rx="16" fill="#c9ff4a"/><text x="630" y="112" fill="#4e6419" font-size="19" font-weight="800">Payments and fiscal</text><text x="630" y="157" fill="#27330d" font-size="16">SISP · e-Fatura</text><text x="630" y="183" fill="#27330d" font-size="16">Payable</text><text x="630" y="209" fill="#27330d" font-size="16">Billing SDKs</text><text x="630" y="279" fill="#172006" font-size="42" font-weight="900">07</text>
    <rect x="900" y="72" width="282" height="235" rx="16" fill="#171b23"/><text x="924" y="112" fill="#78a9ff" font-size="19" font-weight="800">Foundations</text><text x="924" y="157" fill="#c3cbd7" font-size="16">Laravel packages</text><text x="924" y="183" fill="#c3cbd7" font-size="16">Onyx · Git Cognition</text><text x="924" y="209" fill="#c3cbd7" font-size="16">Omnitrack</text><text x="924" y="279" fill="#ffffff" font-size="42" font-weight="900">12+</text>
  </g>
  <rect x="18" y="323" width="1164" height="139" rx="16" fill="#f2edff" stroke="#d9cdf7"/>
  <text x="44" y="361" fill="#765db5" font-family="SFMono-Regular,Consolas,monospace" font-size="13" font-weight="700" letter-spacing="2">RESEARCH HORIZON</text>
  <text x="44" y="405" fill="#241b38" font-family="-apple-system,BlinkMacSystemFont,Segoe UI,sans-serif" font-size="22" font-weight="750">Active study, clearly separated from shipped work.</text>
  <rect x="860" y="365" width="142" height="48" rx="24" fill="#ffffff" stroke="#c9b9ef"/><text x="931" y="395" text-anchor="middle" fill="#674d9f" font-family="-apple-system,BlinkMacSystemFont,Segoe UI,sans-serif" font-size="15" font-weight="700">Deep learning</text>
  <rect x="1016" y="365" width="142" height="48" rx="24" fill="#ffffff" stroke="#c9b9ef"/><text x="1087" y="395" text-anchor="middle" fill="#674d9f" font-family="-apple-system,BlinkMacSystemFont,Segoe UI,sans-serif" font-size="15" font-weight="700">Cybersecurity</text>
</svg>
